<?xml version="1.0" standalone="no"?>
<!DOCTYPE svg PUBLIC "-//W3C//DTD SVG 20010904//EN"
 "http://www.w3.org/TR/2001/REC-SVG-20010904/DTD/svg10.dtd">
<svg version="1.0" xmlns="http://www.w3.org/2000/svg"
 width="169.000000pt" height="85.000000pt" viewBox="0 0 169.000000 85.000000"
 preserveAspectRatio="xMidYMid meet">
<metadata>
Created by potrace 1.16, written by Peter Selinger 2001-2019
</metadata>
<g transform="translate(0.000000,85.000000) scale(0.100000,-0.100000)"
fill="#000000" stroke="none">
<path d="M189 817 c-76 -51 -100 -129 -79 -258 6 -43 9 -83 5 -89 -4 -6 -31
-22 -62 -35 -53 -24 -54 -25 -51 -62 3 -35 6 -38 51 -51 60 -17 73 -38 81
-130 7 -78 15 -103 49 -140 31 -34 118 -56 191 -48 75 8 106 27 106 66 0 38
-23 50 -98 50 -36 0 -64 5 -70 13 -5 6 -13 45 -17 85 -4 44 -16 91 -31 119
l-23 47 20 33 c19 31 21 43 14 144 -9 137 1 170 48 163 50 -7 82 15 82 56 0
45 -28 60 -116 60 -52 0 -73 -5 -100 -23z"/>
<path d="M1312 818 c-31 -15 -39 -54 -17 -78 12 -14 34 -20 74 -22 l56 -3 -4
-118 c-3 -113 -2 -119 23 -157 24 -37 25 -41 11 -74 -8 -19 -15 -60 -15 -89 0
-30 -3 -68 -6 -85 -6 -28 -9 -30 -35 -25 -40 8 -88 -14 -95 -43 -14 -57 25
-77 138 -72 65 3 80 7 103 28 42 39 48 58 55 159 6 93 7 95 43 125 54 45 52
80 -7 105 -24 11 -46 27 -50 36 -3 9 -3 67 0 128 7 111 7 112 -20 144 -15 18
-44 37 -64 43 -48 13 -161 12 -190 -2z"/>
</g>
</svg>
