<svg width="137" height="113" viewBox="0 0 137 113" fill="none" xmlns="http://www.w3.org/2000/svg">
<path d="M5 103C2.23858 103 0 105.239 0 108C0 110.761 2.23858 113 5 113V103ZM110.089 2.12253C108.5 -0.135777 105.381 -0.678213 103.123 0.910968L66.3212 26.8082C64.0629 28.3974 63.5205 31.5164 65.1097 33.7747C66.6989 36.033 69.8179 36.5754 72.0762 34.9862L104.788 11.9665L127.808 44.6788C129.397 46.9371 132.516 47.4795 134.775 45.8903C137.033 44.3011 137.575 41.1821 135.986 38.9238L110.089 2.12253ZM5 113C49.2793 113 74.2694 98.2138 88.8942 76.5474C103.124 55.4659 106.992 28.4761 110.926 5.85671L101.074 4.14329C97.0077 27.5239 93.3758 52.0341 80.6058 70.9526C68.2306 89.2862 46.7207 103 5 103V113Z" fill="black"/>
</svg>
